<?xml version="1.0" encoding="UTF-8"?>
<svg width="60px" height="60px" viewBox="0 0 60 60" version="1.1" xmlns="http://www.w3.org/2000/svg" xmlns:xlink="http://www.w3.org/1999/xlink">
    <!-- Generator: Sketch 46.2 (44496) - http://www.bohemiancoding.com/sketch -->
    <title>Octicons-mark-github</title>
    <desc>Created with Sketch.</desc>
    <defs></defs>
    <g id="Page-1" stroke="none" stroke-width="1" fill="none" fill-rule="evenodd">
        <g id="Octicons-mark-github" fill-rule="nonzero" fill="#9B9B9B">
            <path d="M30,0 C13.4326172,0 0,13.7687688 0,30.7507508 C0,44.3393393 8.595,55.8633634 20.5169531,59.9286486 C22.0166016,60.2102102 22.5641016,59.2604805 22.5641016,58.4496697 C22.5641016,57.7176577 22.5366211,55.2927928 22.5219727,52.7252252 C14.1796875,54.5833033 12.4163672,49.0990991 12.4163672,49.0990991 C11.0504297,45.548048 9.08566406,44.6021021 9.08566406,44.6021021 C6.35923828,42.6951952 9.2925,42.7327327 9.2925,42.7327327 C12.3045703,42.9466667 13.8903516,45.9009009 13.8903516,45.9009009 C16.5673828,50.6006006 20.9142773,49.2417417 22.6208203,48.4534535 C22.8935156,46.4714715 23.6698828,45.1126126 24.5251172,44.3468468 C17.8655859,43.5698498 10.86,40.9309309 10.86,29.1478679 C10.86,25.7882282 12.0300586,23.048048 13.9453125,20.8952553 C13.6395117,20.1144745 12.6067969,16.9857057 14.2419141,12.7533934 C14.2419141,12.7533934 16.7578125,11.9275676 22.4926172,15.9065465 C24.8839453,15.2215015 27.4492969,14.8836637 29.9999414,14.8723724 C32.5487695,14.8836637 35.1158789,15.2252252 37.510957,15.9102703 C43.2348633,11.9275676 45.7543945,12.7571171 45.7543945,12.7571171 C47.3950195,16.9932132 46.3623047,20.1181982 46.0546875,20.8952553 C47.9772656,23.048048 49.1381836,25.7882883 49.1381836,29.1478679 C49.1381836,40.960961 42.121582,43.5622823 35.4382617,44.3243243 C36.5186133,45.2777778 37.4743945,47.1471471 37.4743945,50.015015 C37.4743945,54.1254054 37.434082,57.4399399 37.434082,58.4534535 C37.434082,59.2717718 37.979707,60.2289489 39.4995117,59.9286486 C51.4123828,55.8558559 60,44.3318318 60,30.7507508 C60,13.7687688 46.5673828,0 30,0 Z" id="Shape"></path>
        </g>
    </g>
</svg>