<?xml version="1.0" encoding="UTF-8"?>
<svg width="60px" height="60px" viewBox="0 0 60 60" version="1.1" xmlns="http://www.w3.org/2000/svg" xmlns:xlink="http://www.w3.org/1999/xlink">
    <!-- Generator: Sketch 46.2 (44496) - http://www.bohemiancoding.com/sketch -->
    <title>Shape</title>
    <desc>Created with Sketch.</desc>
    <defs></defs>
    <g id="Page-1" stroke="none" stroke-width="1" fill="none" fill-rule="evenodd">
        <g id="circle" fill-rule="nonzero" fill="#9B9B9B">
            <path d="M30,0 C13.4310937,0 0,13.4310937 0,30 C0,46.5689063 13.4310937,60 30,60 C46.5689063,60 60,46.5689063 60,30 C60,13.4310937 46.5689062,0 30,0 Z M40.4846484,44.5862109 C39.0292969,45.2710547 37.7124609,45.7529297 36.5332031,46.0290234 C35.3554688,46.305 34.0795313,46.4428125 32.7083203,46.4428125 C31.1533594,46.4428125 29.77875,46.2464062 28.5827344,45.8532422 C27.3866016,45.4599609 26.3671875,44.89875 25.5235547,44.1737109 C24.6766406,43.445625 24.0908203,42.6723047 23.7671484,41.8519922 C23.4390234,41.0341406 23.2777734,39.8453906 23.2777734,38.2910156 L23.2777734,26.3524219 L19.5154688,26.3524219 L19.5154688,21.5346094 C20.8521094,21.1010156 21.9984375,20.4785156 22.9504688,19.6669922 C23.9048438,18.8561719 24.6694922,17.8798828 25.2466406,16.7430469 C25.8237891,15.6077344 26.2207031,14.1612891 26.4367969,12.4057031 L31.2780469,12.4057031 L31.2780469,21.0079687 L39.3544922,21.0079687 L39.3544922,26.3523047 L31.2780469,26.3523047 L31.2780469,35.0792578 C31.2780469,37.0532812 31.3842188,38.3201953 31.5930469,38.8805859 C31.8004688,39.4408594 32.1914063,39.8876953 32.7597656,40.2229687 C33.5119922,40.6728516 34.3726172,40.8997266 35.3430469,40.8997266 C37.0642969,40.8997266 38.7802734,40.3401562 40.4846484,39.2194922 L40.4846484,44.5862109 L40.4846484,44.5862109 Z" id="Shape"></path>
        </g>
    </g>
</svg>